<svg xmlns="http://www.w3.org/2000/svg" version="1.1" xmlns:xlink="http://www.w3.org/1999/xlink" width="512" height="512" x="0" y="0" viewBox="0 0 512 512" style="enable-background:new 0 0 512 512" xml:space="preserve" class=""><g><g fill-rule="evenodd" clip-rule="evenodd"><path fill="#f5d100" d="M255.991.015C114.827.015.008 114.854.008 256.015c0 141.16 114.819 255.999 255.983 255.999s256.024-114.839 256.024-255.999c.001-141.161-114.86-256-256.024-256z" opacity="1" data-original="#fff16b" class=""></path><path fill="#dbb21b" d="M235.019 511.15c6.919.564 13.91.864 20.972.864 117.988 0 217.581-80.234 247.11-189L308.632 128.546c-13.428-13.592-32.064-22.03-52.641-22.03-40.831 0-74.029 33.21-74.029 74.029 0 20.573 8.436 39.211 22.029 52.64l44.975 44.976c-20.198-1.462-39.597-9.192-55.268-22.126a11.981 11.981 0 0 0-13.747-1.071c-43.745 25.853-71.198 71.53-73.455 122.168a12.016 12.016 0 0 0 3.78 9.275z" opacity="1" data-original="#ffd845" class=""></path><path fill="#ffffff" d="M255.991 130.514c27.617 0 50.023 22.443 50.023 50.031 0 27.589-22.406 50.031-50.023 50.031-27.576 0-50.023-22.443-50.023-50.031 0-27.589 22.447-50.031 50.023-50.031zm0 124.06c40.831 0 74.029-33.21 74.029-74.029s-33.198-74.029-74.029-74.029-74.029 33.21-74.029 74.029c0 40.818 33.198 74.029 74.029 74.029zm0 126.941c-43.129 0-84.986-4.44-124.667-13.201 4.432-35.899 24.047-68.001 54.085-88.408 20.518 14.568 45.263 22.508 70.582 22.508s50.064-7.94 70.582-22.508c30.079 20.407 49.695 52.509 54.127 88.408-39.682 8.761-81.58 13.201-124.709 13.201zm76.04-126.551c43.745 25.861 71.198 71.53 73.455 122.168.246 5.741-3.57 10.854-9.151 12.2-44.483 10.743-91.675 16.181-140.344 16.181s-95.86-5.437-140.302-16.181a12.024 12.024 0 0 1-9.192-12.2c2.257-50.638 29.71-96.316 73.455-122.168a11.981 11.981 0 0 1 13.747 1.071c17.482 14.428 39.6 22.381 62.293 22.381s44.812-7.953 62.293-22.369a11.96 11.96 0 0 1 13.746-1.083z" opacity="1" data-original="#ffffff" class=""></path></g></g></svg>